<svg width="16" height="18" viewBox="0 0 16 18" fill="none" xmlns="http://www.w3.org/2000/svg">
<path d="M3.55496 17.9728H12.4442C14.1771 17.9728 15.0392 17.1024 15.0392 15.3528V2.65458C15.0392 0.91351 14.1771 0.0263672 12.4442 0.0263672H3.55496C1.83068 0.0263672 0.959961 0.91351 0.959961 2.65494V15.3528C0.959961 17.1021 1.83068 17.9728 3.55496 17.9728ZM3.62175 16.6253C2.7596 16.6253 2.30746 16.1646 2.30746 15.3278V2.67994C2.30746 1.85137 2.7596 1.37387 3.63032 1.37387H12.3775C13.2478 1.37387 13.6917 1.8428 13.6917 2.67994V15.3278C13.6917 16.1646 13.2478 16.6253 12.3857 16.6253H3.62175ZM4.83568 4.8728H11.1803C11.4732 4.8728 11.6992 4.63851 11.6992 4.34565C11.6992 4.06101 11.4735 3.84351 11.1803 3.84351H4.83568C4.52568 3.84351 4.30818 4.06101 4.30818 4.34565C4.30818 4.63851 4.52603 4.8728 4.83568 4.8728ZM4.83568 7.79422H11.1803C11.4732 7.79422 11.6992 7.55994 11.6992 7.26672C11.6992 6.98244 11.4735 6.76458 11.1803 6.76458H4.83568C4.52568 6.76458 4.30818 6.98244 4.30818 7.26672C4.30818 7.55958 4.52603 7.79422 4.83568 7.79422ZM4.83568 10.7157H7.84068C8.13353 10.7157 8.3596 10.4896 8.3596 10.2049C8.3596 9.91208 8.13353 9.68601 7.84068 9.68601H4.83532C4.52532 9.68601 4.30782 9.91208 4.30782 10.2049C4.30782 10.4896 4.52568 10.7157 4.83532 10.7157" fill="#121212"/>
</svg>
