<svg width="25" height="24" viewBox="0 0 25 24" fill="none" xmlns="http://www.w3.org/2000/svg">
<path d="M19.875 10.3711V19.5C19.875 20.0967 19.6379 20.669 19.216 21.091C18.794 21.5129 18.2217 21.75 17.625 21.75H7.125C6.52826 21.75 5.95597 21.5129 5.53401 21.091C5.11205 20.669 4.875 20.0967 4.875 19.5V4.5C4.875 3.90326 5.11205 3.33097 5.53401 2.90901C5.95597 2.48705 6.52826 2.25 7.125 2.25H11.7539C12.1516 2.25006 12.533 2.40804 12.8142 2.68922L19.4358 9.31078C19.717 9.59202 19.8749 9.97341 19.875 10.3711Z" stroke="#484C52" stroke-width="1.5" stroke-linejoin="round"/>
<path d="M12.375 2.625V8.25C12.375 8.64782 12.533 9.02936 12.8143 9.31066C13.0956 9.59196 13.4772 9.75 13.875 9.75H19.5M8.625 13.5H16.125M8.625 17.25H16.125" stroke="#484C52" stroke-width="1.5" stroke-linecap="round" stroke-linejoin="round"/>
</svg>
