<svg width="20" height="20" viewBox="0 0 20 20" fill="none" xmlns="http://www.w3.org/2000/svg">
<path d="M3.33366 9.58333L2.92949 9.68417C2.56893 9.7743 2.24883 9.98235 2.02008 10.2753C1.79133 10.5682 1.66705 10.9292 1.66699 11.3008V12.865C1.66705 13.2367 1.79133 13.5976 2.02008 13.8906C2.24883 14.1835 2.56893 14.3915 2.92949 14.4817L4.37949 14.8442C4.45317 14.8625 4.53006 14.8638 4.60433 14.8481C4.6786 14.8323 4.7483 14.7998 4.80814 14.753C4.86797 14.7063 4.91638 14.6465 4.94968 14.5783C4.98298 14.51 5.0003 14.4351 5.00032 14.3592V9.80667C5.00033 9.73065 4.983 9.65563 4.94965 9.58731C4.9163 9.51899 4.86782 9.45918 4.80788 9.41242C4.74794 9.36566 4.67813 9.33318 4.60375 9.31745C4.52938 9.30173 4.45239 9.30317 4.37866 9.32167L3.33366 9.58333ZM3.33366 9.58333V9.16667C3.33366 7.39856 4.03604 5.70286 5.28628 4.45262C6.53652 3.20238 8.23221 2.5 10.0003 2.5C11.7684 2.5 13.4641 3.20238 14.7144 4.45262C15.9646 5.70286 16.667 7.39856 16.667 9.16667V9.58333M16.667 9.58333L17.0712 9.68417C17.4317 9.7743 17.7518 9.98235 17.9806 10.2753C18.2093 10.5682 18.3336 10.9292 18.3337 11.3008V12.865C18.3336 13.2367 18.2093 13.5976 17.9806 13.8906C17.7518 14.1835 17.4317 14.3915 17.0712 14.4817L16.667 14.5833M16.667 9.58333L15.6212 9.32167C15.5475 9.30332 15.4706 9.30199 15.3963 9.31778C15.322 9.33358 15.2523 9.36608 15.1925 9.41283C15.1327 9.45957 15.0843 9.51933 15.051 9.58757C15.0177 9.65581 15.0004 9.73074 15.0003 9.80667V14.3592C15.0004 14.4351 15.0177 14.51 15.051 14.5783C15.0843 14.6465 15.1327 14.7063 15.1925 14.753C15.2523 14.7998 15.322 14.8323 15.3963 14.8481C15.4706 14.8638 15.5475 14.8625 15.6212 14.8442L16.667 14.5833M16.667 14.5833V15.4167C16.667 15.8587 16.4914 16.2826 16.1788 16.5952C15.8663 16.9077 15.4424 17.0833 15.0003 17.0833H12.5003M12.5003 17.0833C12.5003 16.7518 12.3686 16.4339 12.1342 16.1995C11.8998 15.965 11.5818 15.8333 11.2503 15.8333H8.75032C8.4188 15.8333 8.10086 15.965 7.86644 16.1995C7.63202 16.4339 7.50032 16.7518 7.50032 17.0833C7.50032 17.4149 7.63202 17.7328 7.86644 17.9672C8.10086 18.2016 8.4188 18.3333 8.75032 18.3333H11.2503C11.5818 18.3333 11.8998 18.2016 12.1342 17.9672C12.3686 17.7328 12.5003 17.4149 12.5003 17.0833Z" stroke="#121212" stroke-width="1.5"/>
</svg>
