<svg width="19" height="18" viewBox="0 0 19 18" fill="none" xmlns="http://www.w3.org/2000/svg">
<path d="M17.8165 3.62231L14.5553 0.344536C14.3398 0.130128 14.0482 0.00976562 13.7442 0.00976562C13.4402 0.00976563 13.1486 0.130128 12.9331 0.344536L1.37201 11.889L0.316454 16.4445C0.280041 16.6111 0.281289 16.7836 0.320108 16.9496C0.358926 17.1156 0.434334 17.2708 0.540823 17.4039C0.647311 17.537 0.782191 17.6447 0.935608 17.719C1.08902 17.7933 1.2571 17.8324 1.42757 17.8334C1.50696 17.842 1.58706 17.842 1.66645 17.8334L6.27201 16.7779L17.8165 5.24454C18.0309 5.02904 18.1512 4.73742 18.1512 4.43343C18.1512 4.12944 18.0309 3.83781 17.8165 3.62231ZM5.71645 15.7779L1.39979 16.6834L2.38312 12.4501L11.0331 3.83343L14.3665 7.16676L5.71645 15.7779ZM15.1109 6.3612L11.7776 3.02787L13.7109 1.10565L16.9887 4.43898L15.1109 6.3612Z" fill="#121212"/>
</svg>
