<svg width="20" height="20" viewBox="0 0 20 20" fill="none" xmlns="http://www.w3.org/2000/svg">
<path d="M15.417 16.667C15.417 16.7775 15.3731 16.8835 15.295 16.9616C15.2168 17.0398 15.1108 17.0837 15.0003 17.0837H10.0003V17.917C10.0003 18.0598 9.98644 18.1987 9.95866 18.3337H15.0003C15.4424 18.3337 15.8663 18.1581 16.1788 17.8455C16.4914 17.5329 16.667 17.109 16.667 16.667V8.19033C16.6669 7.74833 16.4912 7.32448 16.1787 7.01199L11.3212 2.15533L11.2803 2.12199L11.2503 2.09699C11.1931 2.04274 11.1321 1.99261 11.0678 1.94699C11.0462 1.93376 11.0239 1.92153 11.0012 1.91033L10.9612 1.89033L10.9195 1.86616C10.8745 1.84033 10.8287 1.81366 10.7812 1.79366C10.6151 1.7277 10.4395 1.68887 10.2612 1.67866C10.2445 1.67755 10.2281 1.6756 10.212 1.67283L10.1437 1.66699H5.00033C4.5583 1.66699 4.13437 1.84259 3.82181 2.15515C3.50925 2.46771 3.33366 2.89163 3.33366 3.33366V9.62533C3.67966 9.27204 4.1098 9.01252 4.58366 8.87116V3.33366C4.58366 3.22315 4.62756 3.11717 4.7057 3.03903C4.78384 2.96089 4.88982 2.91699 5.00033 2.91699H10.0003V6.66699C10.0003 7.10902 10.1759 7.53294 10.4885 7.8455C10.801 8.15806 11.225 8.33366 11.667 8.33366H15.417V16.667ZM11.2503 3.85116L14.482 7.08366H11.667C11.5565 7.08366 11.4505 7.03976 11.3724 6.96162C11.2942 6.88348 11.2503 6.7775 11.2503 6.66699V3.85116ZM3.33366 12.5003H2.91699C2.58547 12.5003 2.26753 12.632 2.03311 12.8664C1.79869 13.1009 1.66699 13.4188 1.66699 13.7503V17.917C1.66699 18.2485 1.79869 18.5665 2.03311 18.8009C2.26753 19.0353 2.58547 19.167 2.91699 19.167H7.91699C8.24851 19.167 8.56646 19.0353 8.80088 18.8009C9.0353 18.5665 9.16699 18.2485 9.16699 17.917V13.7503C9.16699 13.4188 9.0353 13.1009 8.80088 12.8664C8.56646 12.632 8.24851 12.5003 7.91699 12.5003H7.50033V11.667C7.50033 11.1145 7.28083 10.5846 6.89013 10.1939C6.49943 9.80315 5.96953 9.58366 5.41699 9.58366C4.86446 9.58366 4.33455 9.80315 3.94385 10.1939C3.55315 10.5846 3.33366 11.1145 3.33366 11.667V12.5003ZM4.58366 11.667C4.58366 11.446 4.67146 11.234 4.82774 11.0777C4.98402 10.9215 5.19598 10.8337 5.41699 10.8337C5.63801 10.8337 5.84997 10.9215 6.00625 11.0777C6.16253 11.234 6.25033 11.446 6.25033 11.667V12.5003H4.58366V11.667ZM6.25033 15.8337C6.25033 16.0547 6.16253 16.2666 6.00625 16.4229C5.84997 16.5792 5.63801 16.667 5.41699 16.667C5.19598 16.667 4.98402 16.5792 4.82774 16.4229C4.67146 16.2666 4.58366 16.0547 4.58366 15.8337C4.58366 15.6126 4.67146 15.4007 4.82774 15.2444C4.98402 15.0881 5.19598 15.0003 5.41699 15.0003C5.63801 15.0003 5.84997 15.0881 6.00625 15.2444C6.16253 15.4007 6.25033 15.6126 6.25033 15.8337Z" fill="#121212"/>
</svg>
