<svg width="25" height="24" viewBox="0 0 25 24" fill="none" xmlns="http://www.w3.org/2000/svg">
<path d="M12.875 4C13.9359 4 14.9533 4.42143 15.7034 5.17157C16.4536 5.92172 16.875 6.93913 16.875 8C16.875 9.06087 16.4536 10.0783 15.7034 10.8284C14.9533 11.5786 13.9359 12 12.875 12C11.8141 12 10.7967 11.5786 10.0466 10.8284C9.29643 10.0783 8.875 9.06087 8.875 8C8.875 6.93913 9.29643 5.92172 10.0466 5.17157C10.7967 4.42143 11.8141 4 12.875 4ZM12.875 6C12.3446 6 11.8359 6.21071 11.4608 6.58579C11.0857 6.96086 10.875 7.46957 10.875 8C10.875 8.53043 11.0857 9.03914 11.4608 9.41421C11.8359 9.78929 12.3446 10 12.875 10C13.4054 10 13.9141 9.78929 14.2892 9.41421C14.6643 9.03914 14.875 8.53043 14.875 8C14.875 7.46957 14.6643 6.96086 14.2892 6.58579C13.9141 6.21071 13.4054 6 12.875 6ZM12.875 13C15.545 13 20.875 14.33 20.875 17V20H4.875V17C4.875 14.33 10.205 13 12.875 13ZM12.875 14.9C9.905 14.9 6.775 16.36 6.775 17V18.1H18.975V17C18.975 16.36 15.845 14.9 12.875 14.9Z" fill="#484C52"/>
</svg>
