<svg width="20" height="20" viewBox="0 0 20 20" fill="none" xmlns="http://www.w3.org/2000/svg">
<g clip-path="url(#clip0_86_65975)">
<path d="M11.4397 2.87012L12.9063 5.82762C13.1063 6.23928 13.6397 6.63428 14.0897 6.70928L16.7472 7.15512C18.4472 7.44095 18.8472 8.68428 17.6222 9.91095L15.5555 11.9943C15.2055 12.3468 15.0138 13.0276 15.1222 13.5151L15.7138 16.0943C16.1805 18.136 15.1055 18.9251 13.3138 17.8585L10.8222 16.371C10.3722 16.1026 9.63051 16.1026 9.17217 16.371L6.68217 17.8585C4.89884 18.9251 3.81551 18.1268 4.28217 16.0943L4.87384 13.5151C4.98217 13.0276 4.79051 12.3468 4.44051 11.9943L2.37384 9.91095C1.15801 8.68345 1.54967 7.44095 3.24884 7.15512L5.90717 6.70928C6.34884 6.63428 6.88217 6.23928 7.08217 5.82762L8.54884 2.87012C9.34884 1.26595 10.6488 1.26595 11.4405 2.87012" stroke="#121212" stroke-width="1.5" stroke-linecap="round" stroke-linejoin="round"/>
</g>
<defs>
<clipPath id="clip0_86_65975">
<rect width="20" height="20" fill="white"/>
</clipPath>
</defs>
</svg>
