<svg width="20" height="20" viewBox="0 0 20 20" fill="none" xmlns="http://www.w3.org/2000/svg">
<g clip-path="url(#clip0_86_65950)">
<path d="M10.0559 6.11133C7.88921 6.11133 6.16699 7.83355 6.16699 10.0002C6.16699 12.1669 7.88921 13.8891 10.0559 13.8891C12.2225 13.8891 13.9448 12.1669 13.9448 10.0002C13.9448 7.83355 12.2225 6.11133 10.0559 6.11133ZM10.0559 12.778C8.50033 12.778 7.2781 11.5558 7.2781 10.0002C7.2781 8.44466 8.50033 7.22244 10.0559 7.22244C11.6114 7.22244 12.8337 8.44466 12.8337 10.0002C12.8337 11.5558 11.6114 12.778 10.0559 12.778Z" fill="#121212"/>
<path d="M18.2224 8.16688L16.6669 7.66688L16.3336 6.83355L17.1113 5.38911C17.278 5.05577 17.2224 4.61133 16.9447 4.33355L15.6113 3.00022C15.3336 2.72244 14.8891 2.66688 14.5558 2.83355L13.1113 3.61133L12.278 3.27799L11.778 1.72244C11.6669 1.38911 11.3336 1.11133 10.9447 1.11133H9.05577C8.66688 1.11133 8.33355 1.38911 8.278 1.77799L7.778 3.33355C7.44466 3.38911 7.16688 3.50022 6.88911 3.66688L5.44466 2.88911C5.11133 2.72244 4.66688 2.77799 4.38911 3.05577L3.05577 4.38911C2.77799 4.66688 2.72244 5.11133 2.88911 5.44466L3.61133 6.83355C3.50022 7.11133 3.38911 7.44466 3.27799 7.72244L1.72244 8.22244C1.38911 8.33355 1.11133 8.66688 1.11133 9.05577V10.9447C1.11133 11.3336 1.38911 11.6669 1.77799 11.778L3.33355 12.278L3.66688 13.1113L2.88911 14.5558C2.72244 14.8891 2.77799 15.3336 3.05577 15.6113L4.38911 16.9447C4.66688 17.2224 5.11133 17.278 5.44466 17.1113L6.88911 16.3336L7.72244 16.6669L8.22244 18.278C8.33355 18.6113 8.66688 18.8891 9.05577 18.8891H10.9447C11.3336 18.8891 11.6669 18.6113 11.778 18.278L12.278 16.6669L13.1113 16.3336L14.5558 17.1113C14.8891 17.278 15.3336 17.2224 15.6113 16.9447L16.9447 15.6113C17.2224 15.3336 17.278 14.8891 17.1113 14.5558L16.3336 13.1113L16.6669 12.278L18.278 11.778C18.6113 11.6669 18.8891 11.3336 18.8891 10.9447V9.05577C18.8891 8.66688 18.6113 8.278 18.2224 8.16688ZM17.778 10.778L15.778 11.3891L15.7224 11.6669L15.2224 12.8336L15.0558 13.1113L16.0558 14.9447L14.9447 16.0558L13.1113 15.0558L12.8336 15.2224C12.4447 15.4447 12.0558 15.6113 11.6669 15.7224L11.3891 15.778L10.778 17.778H9.22244L8.61133 15.778L8.33355 15.7224L7.16688 15.2224L6.88911 15.0558L5.05577 16.0558L3.94466 14.9447L4.94466 13.1113L4.778 12.8336C4.55577 12.4447 4.38911 12.0558 4.27799 11.6669L4.22244 11.3891L2.22244 10.778V9.22244L4.11133 8.66688L4.22244 8.38911C4.33355 7.94466 4.50022 7.55577 4.72244 7.16688L4.88911 6.88911L3.94466 5.05577L5.05577 3.94466L6.83355 4.94466L7.11133 4.778C7.50022 4.55577 7.88911 4.38911 8.33355 4.27799L8.61133 4.16688L9.22244 2.22244H10.778L11.3891 4.16688L11.6669 4.27799C12.0558 4.38911 12.4447 4.55577 12.8336 4.778L13.1113 4.94466L14.9447 3.94466L16.0558 5.05577L15.0558 6.88911L15.2224 7.16688C15.4447 7.55577 15.6113 7.94466 15.7224 8.33355L15.778 8.61133L17.778 9.22244V10.778Z" fill="#121212"/>
</g>
<defs>
<clipPath id="clip0_86_65950">
<rect width="20" height="20" fill="white"/>
</clipPath>
</defs>
</svg>
