<svg width="27" height="27" viewBox="0 0 27 27" fill="none" xmlns="http://www.w3.org/2000/svg">
<path d="M22.2493 22.7194L16.6181 17.0881C17.9713 15.4636 18.6461 13.3799 18.5021 11.2704C18.3581 9.16102 17.4064 7.18832 15.845 5.76271C14.2836 4.3371 12.2327 3.56835 10.1189 3.61638C8.00511 3.66441 5.99122 4.52552 4.49616 6.02058C3.00111 7.51563 2.14 9.52952 2.09197 11.6433C2.04394 13.7571 2.81269 15.808 4.23829 17.3694C5.6639 18.9309 7.6366 19.8825 9.74602 20.0265C11.8554 20.1705 13.9392 19.4957 15.5637 18.1425L21.195 23.7737L22.2493 22.7194ZM3.60783 11.8432C3.60783 10.5159 4.00142 9.21839 4.73882 8.11478C5.47623 7.01117 6.52434 6.15102 7.7506 5.64308C8.97686 5.13515 10.3262 5.00225 11.628 5.26119C12.9298 5.52013 14.1256 6.15929 15.0641 7.09783C16.0026 8.03637 16.6418 9.23214 16.9007 10.5339C17.1597 11.8357 17.0268 13.1851 16.5189 14.4113C16.0109 15.6376 15.1508 16.6857 14.0472 17.4231C12.9435 18.1605 11.6461 18.5541 10.3188 18.5541C8.53952 18.5521 6.83371 17.8445 5.57559 16.5863C4.31748 15.3282 3.6098 13.6224 3.60783 11.8432Z" fill="black"/>
<path d="M14.0617 10.6943C14.4607 10.6938 14.8431 10.5351 15.1252 10.253C15.4073 9.97092 15.566 9.58847 15.5665 9.18954V8.06097H14.4379C14.0528 8.06158 13.6827 8.21059 13.4045 8.47704C13.2098 8.12332 12.9237 7.82833 12.5761 7.62282C12.2285 7.4173 11.8322 7.30879 11.4284 7.30859H10.2998V8.43716C10.3005 9.03557 10.5386 9.60928 10.9617 10.0324C11.3849 10.4556 11.9586 10.6936 12.557 10.6943H12.9332V15.5847H8.4189V13.7038H8.79509C9.19402 13.7033 9.57647 13.5446 9.85856 13.2625C10.1406 12.9804 10.2993 12.598 10.2998 12.199V11.0705H9.17128C8.78612 11.0711 8.41601 11.2201 8.13789 11.4865C7.94313 11.1328 7.65705 10.8378 7.30947 10.6323C6.9619 10.4268 6.56556 10.3183 6.16177 10.3181H5.0332V11.4467C5.0339 12.0451 5.27193 12.6188 5.69507 13.0419C6.11821 13.4651 6.69192 13.7031 7.29033 13.7038H7.66652V15.5847H5.0332V16.3371H15.5665V15.5847H13.6855V10.6943H14.0617ZM13.6855 9.56572C13.6855 9.36618 13.7648 9.17481 13.9059 9.03371C14.047 8.89262 14.2384 8.81335 14.4379 8.81335H14.8141V9.18954C14.8141 9.38908 14.7348 9.58045 14.5937 9.72155C14.4526 9.86265 14.2613 9.94191 14.0617 9.94191H13.6855V9.56572ZM8.4189 12.5752C8.4189 12.3757 8.49817 12.1843 8.63927 12.0432C8.78036 11.9021 8.97173 11.8229 9.17128 11.8229H9.54747V12.199C9.54747 12.3986 9.4682 12.59 9.3271 12.7311C9.186 12.8722 8.99463 12.9514 8.79509 12.9514H8.4189V12.5752ZM7.66652 12.9514H7.29033C6.8914 12.9509 6.50895 12.7922 6.22686 12.5101C5.94477 12.2281 5.78608 11.8456 5.78558 11.4467V11.0705H6.16177C6.5607 11.071 6.94315 11.2297 7.22524 11.5118C7.50733 11.7938 7.66602 12.1763 7.66652 12.5752V12.9514ZM12.9332 9.94191H12.557C12.158 9.94142 11.7756 9.78272 11.4935 9.50063C11.2114 9.21854 11.0527 8.83609 11.0522 8.43716V8.06097H11.4284C11.8273 8.06147 12.2098 8.22016 12.4919 8.50225C12.774 8.78434 12.9327 9.16679 12.9332 9.56572V9.94191Z" fill="black"/>
<g clip-path="url(#clip0_859_19968)">
<path fill-rule="evenodd" clip-rule="evenodd" d="M17.8223 4.08433C17.8223 3.0011 18.2526 1.96223 19.0185 1.19627C19.7845 0.430312 20.8234 0 21.9066 0C22.9898 0 24.0287 0.430312 24.7947 1.19627C25.5606 1.96223 25.9909 3.0011 25.9909 4.08433C25.9909 5.16756 25.5606 6.20643 24.7947 6.97239C24.0287 7.73835 22.9898 8.16866 21.9066 8.16866C20.8234 8.16866 19.7845 7.73835 19.0185 6.97239C18.2526 6.20643 17.8223 5.16756 17.8223 4.08433ZM21.6735 5.83243L24.025 2.8928L23.6002 2.55298L21.5951 5.05858L20.1748 3.87521L19.8263 4.29345L21.6735 5.83243Z" fill="black"/>
</g>
<defs>
<clipPath id="clip0_859_19968">
<rect width="8.16866" height="8.16866" fill="white" transform="translate(17.8223)"/>
</clipPath>
</defs>
</svg>
